HIERARCHY
ROOT Hips
{
	OFFSET 0.000000 0.000000 0.000000
	CHANNELS 6 Xposition Yposition Zposition Zrotation Yrotation Xrotation 
	JOINT LHipJoint
	{
		OFFSET 0.000000 0.000000 0.000000
		CHANNELS 3 Zrotation Yrotation Xrotation
		JOINT LeftUpLeg
		{
			OFFSET 1.363060 -1.794630 0.839290
			CHANNELS 3 Zrotation Yrotation Xrotation
			JOINT LeftLeg
			{
				OFFSET 2.448110 -6.726130 0.000000
				CHANNELS 3 Zrotation Yrotation Xrotation
				JOINT LeftFoot
				{
					OFFSET 2.562200 -7.039590 0.000000
					CHANNELS 3 Zrotation Yrotation Xrotation
					JOINT LeftToeBase
					{
						OFFSET 0.157640 -0.433110 2.322550
						CHANNELS 3 Zrotation Yrotation Xrotation
						End Site
						{
							OFFSET 0.000000 0.000000 0.000000
						}
					}
				}
			}
		}
	}
	JOINT RHipJoint
	{
		OFFSET 0.000000 0.000000 0.000000
		CHANNELS 3 Zrotation Yrotation Xrotation
		JOINT RightUpLeg
		{
			OFFSET -1.305520 -1.794630 0.839290
			CHANNELS 3 Zrotation Yrotation Xrotation
			JOINT RightLeg
			{
				OFFSET -2.542530 -6.985550 0.000000
				CHANNELS 3 Zrotation Yrotation Xrotation
				JOINT RightFoot
				{
					OFFSET -2.568260 -7.056230 0.000000
					CHANNELS 3 Zrotation Yrotation Xrotation
					JOINT RightToeBase
					{
						OFFSET -0.164730 -0.452590 2.363150
						CHANNELS 3 Zrotation Yrotation Xrotation
						End Site
						{
							OFFSET 0.000000 0.000000 0.000000
						}
					}
				}
			}
		}
	}
	JOINT LowerBack
	{
		OFFSET 0.000000 0.000000 0.000000
		CHANNELS 3 Zrotation Yrotation Xrotation
		JOINT Spine
		{
			OFFSET 0.028270 2.035590 -0.193380
			CHANNELS 3 Zrotation Yrotation Xrotation
			JOINT Spine1
			{
				OFFSET 0.056720 2.048850 -0.042750
				CHANNELS 3 Zrotation Yrotation Xrotation
				JOINT Neck
				{
					OFFSET 0.000000 0.000000 0.000000
					CHANNELS 3 Zrotation Yrotation Xrotation
					JOINT Neck1
					{
						OFFSET -0.054170 1.746240 0.172020
						CHANNELS 3 Zrotation Yrotation Xrotation
						JOINT Head
						{
							OFFSET 0.104070 1.761360 -0.123970
							CHANNELS 3 Zrotation Yrotation Xrotation
							End Site
							{
								OFFSET 0.000000 0.000000 0.000000
							}
						}
					}
				}
				JOINT LeftShoulder
				{
					OFFSET 0.000000 0.000000 0.000000
					CHANNELS 3 Zrotation Yrotation Xrotation
					JOINT LeftArm
					{
						OFFSET 3.362410 1.200890 -0.311210
						CHANNELS 3 Zrotation Yrotation Xrotation
						JOINT LeftForeArm
						{
							OFFSET 4.983000 -0.000000 -0.000000
							CHANNELS 3 Zrotation Yrotation Xrotation
							JOINT LeftHand
							{
								OFFSET 3.483560 -0.000000 -0.000000
								CHANNELS 3 Zrotation Yrotation Xrotation
								JOINT LeftFingerBase
								{
									OFFSET 0.000000 0.000000 0.000000
									CHANNELS 3 Zrotation Yrotation Xrotation
									JOINT LeftHandIndex1
									{
										OFFSET 0.715260 -0.000000 -0.000000
										CHANNELS 3 Zrotation Yrotation Xrotation
										End Site
										{
											OFFSET 0.000000 0.000000 0.000000
										}
									}
								}
								JOINT LThumb
								{
									OFFSET 0.000000 0.000000 0.000000
									CHANNELS 3 Zrotation Yrotation Xrotation
									End Site
									{
										OFFSET 0.000000 0.000000 0.000000
									}
								}
							}
						}
					}
				}
				JOINT RightShoulder
				{
					OFFSET 0.000000 0.000000 0.000000
					CHANNELS 3 Zrotation Yrotation Xrotation
					JOINT RightArm
					{
						OFFSET -3.136600 1.374050 -0.404650
						CHANNELS 3 Zrotation Yrotation Xrotation
						JOINT RightForeArm
						{
							OFFSET -5.241900 -0.000000 -0.000000
							CHANNELS 3 Zrotation Yrotation Xrotation
							JOINT RightHand
							{
								OFFSET -3.444170 -0.000000 -0.000000
								CHANNELS 3 Zrotation Yrotation Xrotation
								JOINT RightFingerBase
								{
									OFFSET 0.000000 0.000000 0.000000
									CHANNELS 3 Zrotation Yrotation Xrotation
									JOINT RightHandIndex1
									{
										OFFSET -0.622530 -0.000000 -0.000000
										CHANNELS 3 Zrotation Yrotation Xrotation
										End Site
										{
											OFFSET 0.000000 0.000000 0.000000
										}
									}
								}
								JOINT RThumb
								{
									OFFSET 0.000000 0.000000 0.000000
									CHANNELS 3 Zrotation Yrotation Xrotation
									End Site
									{
										OFFSET 0.000000 0.000000 0.000000
									}
								}
							}
						}
					}
				}
			}
		}
	}
}
MOTION
Frames: 10
Frame Time: 0.008333
33.644043 17.739125 6.609103 -72.588350 -87.535493 79.011642 -1.959840 -1.325819 -0.545128 -15.438544 -8.814012 -5.255202 -0.384993 5.545014 14.339210 0.131688 1.685043 1.497381 0.112200 -2.159800 -5.947400 1.151099 1.602891 -2.047808 15.818248 -1.422558 -33.170683 -8.132022 -17.184133 53.724545 3.414731 -18.060953 -5.466074 -0.034600 -1.200600 3.301100 -0.746263 0.520136 3.575038 -0.026332 0.870291 -5.145847 2.168382 0.355012 -2.363606 -6.220608 -3.300943 -11.341587 2.828696 -3.673463 5.616518 1.789300 -2.036000 5.835700 4.153937 3.338705 -0.380299 -82.494911 -39.739091 33.036476 50.151063 -57.041326 -23.645954 -0.949664 2.532597 -17.058182 17.897160 30.136022 8.517300 -7.125000 0.000000 0.000000 -13.579500 57.914600 -4.344800 -3.059801 -3.751684 -1.329283 67.227907 40.757879 21.829209 -63.912937 58.427410 -40.155306 -0.342082 0.026197 -18.902215 -12.495070 -27.574394 5.738900 7.125000 0.000000 0.000000 20.039500 -57.126200 -6.120200 
33.538119 17.734511 6.612112 -73.275295 -87.520906 79.772692 -1.948283 -1.304978 -0.532568 -15.500087 -8.706201 -4.968831 -0.382350 5.550390 14.341235 0.133997 1.656494 1.182573 0.115500 -2.190700 -6.032900 1.149697 1.637774 -2.094216 15.705898 -1.375988 -33.673382 -7.621385 -16.833058 51.990977 3.450442 -18.174780 -5.881428 -0.045800 -1.381200 3.798300 -0.571910 0.471870 3.044759 0.004319 0.818488 -5.047979 2.151091 0.328586 -1.880206 -6.003104 -3.208889 -10.591288 2.664046 -3.630601 5.233254 1.705300 -2.014900 5.488000 4.205710 3.368044 -0.346795 -82.940247 -39.189507 33.439567 49.772566 -57.001101 -23.431378 -0.945331 2.594262 -16.973084 18.445295 31.353864 9.116400 -7.125000 0.000000 0.000000 -13.690500 59.164200 -4.793700 -3.072926 -3.777249 -1.271672 66.694462 41.246113 21.247411 -64.525156 58.577852 -40.701412 -0.358930 0.030310 -18.217274 -13.226481 -26.817974 5.934300 7.125000 0.000000 0.000000 18.835700 -56.569900 -5.477500 
33.431193 17.730398 6.615021 -70.381741 -87.509451 76.869619 -1.966756 -1.303341 -0.478868 -15.624970 -8.783210 -4.589589 -0.371917 5.555189 14.386012 0.118375 1.699627 0.799233 0.121400 -2.246000 -6.186100 1.146721 1.607221 -2.056203 15.537928 -1.403661 -34.083046 -7.075705 -16.431320 50.085189 3.484672 -18.284038 -6.074333 -0.051300 -1.461900 4.020600 -0.445540 0.394339 3.681286 0.026757 0.699023 -5.340849 2.146124 0.268708 -3.045756 -5.863329 -3.039855 -9.574039 2.512796 -3.496381 5.277730 1.643300 -1.968900 5.325000 4.242873 3.255694 -0.342609 -83.381210 -37.494363 33.835934 49.823624 -57.079068 -23.459650 -0.951794 2.637174 -16.552779 18.676185 32.432238 9.543500 -7.125000 0.000000 0.000000 -14.073700 60.227400 -5.289700 -3.038501 -3.721226 -1.305058 66.440609 40.599489 21.201273 -65.536041 58.747478 -41.545956 -0.364047 0.038199 -17.665895 -12.936564 -26.306957 5.695500 7.125000 0.000000 0.000000 18.822900 -56.030600 -5.224700 
33.324567 17.724480 6.612914 -69.379374 -87.505537 76.020981 -1.963657 -1.312691 -0.501164 -15.681151 -8.710048 -4.316071 -0.373786 5.544686 14.347159 0.130292 1.633755 0.488856 0.122600 -2.257200 -6.216900 1.139733 1.629407 -2.116614 15.391770 -1.309201 -34.362984 -6.453397 -15.944222 47.841521 3.535334 -18.470733 -5.911987 -0.054500 -1.505900 4.142000 -0.389462 0.308158 3.259137 0.072287 0.606139 -5.085873 2.206885 0.215816 -2.068292 -5.738994 -3.034130 -10.494984 2.512842 -3.453315 5.217925 1.609000 -1.930300 5.446200 4.270868 3.315248 -0.336565 -83.651212 -37.876858 33.925495 49.795041 -57.132830 -23.510373 -0.918525 2.680643 -16.082597 19.299510 33.242074 10.095600 -7.125000 0.000000 0.000000 -13.924500 61.124000 -5.529800 -3.060480 -3.769633 -1.241717 65.702512 41.729553 20.359194 -65.857651 58.828417 -41.850312 -0.373198 0.035992 -17.412513 -13.502729 -26.065736 5.904400 7.125000 0.000000 0.000000 18.119500 -55.914700 -4.968300 
33.217840 17.718763 6.612012 -68.096589 -87.508906 74.840749 -1.967486 -1.312418 -0.491414 -15.769381 -8.694755 -4.015703 -0.371501 5.539743 14.336088 0.128867 1.627863 0.152876 0.126500 -2.292300 -6.314100 1.138511 1.637970 -2.140080 15.221404 -1.222534 -34.664450 -5.873454 -15.447850 45.688647 3.568571 -18.581751 -5.788181 -0.061100 -1.594300 4.385700 -0.313915 0.231082 3.197646 0.104075 0.509592 -5.051269 2.233998 0.164315 -1.929613 -5.599887 -2.964703 -10.524714 2.453189 -3.383899 5.166812 1.563700 -1.893500 5.415600 4.300703 3.310579 -0.328214 -83.982150 -37.436791 34.111043 49.867742 -57.218735 -23.590081 -0.911307 2.714101 -15.701801 19.571234 34.069286 10.483500 -7.125000 0.000000 0.000000 -14.175100 61.962800 -5.913500 -3.059676 -3.777079 -1.216157 65.191661 42.073222 19.902020 -66.408623 58.933814 -42.331177 -0.381669 0.038083 -17.042908 -13.793349 -25.704761 5.958900 7.125000 0.000000 0.000000 17.627700 -55.629700 -4.704000 
33.110613 17.712443 6.609805 -66.899504 -87.524824 73.756666 -1.972416 -1.310274 -0.479060 -15.863781 -8.682124 -3.717633 -0.370885 5.529370 14.309198 0.126401 1.630003 -0.180960 0.129800 -2.322600 -6.398100 1.141372 1.647515 -2.160796 15.027536 -1.086398 -34.890876 -5.283257 -14.898622 43.414649 3.598271 -18.683687 -5.482210 -0.068800 -1.692000 4.655200 -0.266050 0.158671 3.203989 0.133645 0.417303 -5.032233 2.271056 0.115717 -1.860615 -5.476527 -2.905034 -10.640750 2.416282 -3.320990 5.166149 1.526900 -1.859400 5.427900 4.325162 3.302105 -0.323679 -84.305261 -37.036178 34.252417 50.067422 -57.341499 -23.749257 -0.906608 2.738047 -15.338650 19.760217 34.706877 10.777400 -7.125000 0.000000 0.000000 -14.405300 62.605800 -6.230200 -3.055502 -3.780663 -1.197622 64.699984 42.323783 19.519933 -66.914953 59.023956 -42.769868 -0.388974 0.039751 -16.726624 -14.053176 -25.423906 6.014100 7.125000 0.000000 0.000000 17.216300 -55.413200 -4.497700 
33.003084 17.705522 6.606094 -65.783114 -87.555145 72.767873 -1.978283 -1.306943 -0.464934 -15.962358 -8.658959 -3.428084 -0.372187 5.511896 14.262130 0.125273 1.628990 -0.505845 0.132400 -2.345800 -6.462200 1.148104 1.658248 -2.180293 14.805429 -0.891035 -35.043292 -4.689989 -14.296374 41.028961 3.624170 -18.783381 -4.961234 -0.076200 -1.780700 4.900000 -0.248914 0.093209 3.213815 0.161307 0.333253 -5.021552 2.321064 0.071857 -1.817992 -5.366899 -2.854806 -10.743628 2.394939 -3.269416 5.171576 1.497100 -1.830600 5.442500 4.345791 3.294561 -0.319612 -84.631789 -36.682472 34.369157 50.380526 -57.497533 -23.975614 -0.910325 2.751605 -15.054176 19.809507 35.145439 10.939800 -7.125000 0.000000 0.000000 -14.656400 63.029400 -6.487200 -3.048930 -3.783528 -1.183061 64.223105 42.463849 19.222482 -67.360075 59.099308 -43.153120 -0.396091 0.041205 -16.447598 -14.352015 -25.188823 6.094900 7.125000 0.000000 0.000000 16.794300 -55.247200 -4.314300 
32.894853 17.697899 6.600978 -64.698885 -87.600179 71.816324 -1.986226 -1.300828 -0.443019 -16.062639 -8.617574 -3.145288 -0.375253 5.486730 14.195226 0.127393 1.614951 -0.822626 0.133800 -2.357700 -6.495300 1.159856 1.667447 -2.192641 14.551037 -0.625663 -35.114402 -4.099170 -13.637907 38.532585 3.647924 -18.898771 -4.220488 -0.083200 -1.860900 5.121300 -0.261921 0.037537 3.320517 0.186826 0.258922 -5.054867 2.387018 0.034734 -1.948798 -5.273458 -2.808470 -10.776369 2.377511 -3.225095 5.216607 1.470800 -1.807800 5.466900 4.362390 3.275215 -0.317772 -84.960348 -36.266291 34.478230 50.826133 -57.690340 -24.279206 -0.920028 2.755693 -14.885609 19.802784 35.354281 11.005300 -7.125000 0.000000 0.000000 -14.801100 63.224100 -6.620300 -3.035687 -3.777968 -1.181437 63.792258 42.383273 19.070018 -67.773816 59.160938 -43.502828 -0.402286 0.043053 -16.185419 -14.607131 -25.003958 6.165900 7.125000 0.000000 0.000000 16.445200 -55.120500 -4.169700 
32.785920 17.689674 6.594558 -63.570187 -87.658586 70.833027 -1.995192 -1.295749 -0.421783 -16.163768 -8.554079 -2.868339 -0.380185 5.454903 14.109767 0.134993 1.578048 -1.133314 0.133000 -2.350500 -6.475200 1.174470 1.676451 -2.206036 14.260988 -0.286405 -35.100981 -3.517682 -12.925568 35.936176 3.667648 -19.038273 -3.263147 -0.089000 -1.923800 5.295100 -0.301826 -0.012004 3.381500 0.210953 0.193324 -5.080743 2.464969 0.001992 -2.041530 -5.209976 -2.775017 -10.771216 2.388228 -3.193846 5.233529 1.460300 -1.789900 5.472900 4.375019 3.263279 -0.314540 -85.288940 -35.946570 34.571699 51.355406 -57.902978 -24.631030 -0.936198 2.750391 -14.816074 19.694194 35.328271 10.946200 -7.125000 0.000000 0.000000 -14.879400 63.174600 -6.638900 -3.022468 -3.774918 -1.179781 63.368032 42.223322 18.982845 -68.113265 59.209523 -43.788229 -0.407783 0.044874 -15.940129 -14.849262 -24.861493 6.239900 7.125000 0.000000 0.000000 16.132500 -55.031500 -4.052000 
32.676084 17.680847 6.586835 -62.019884 -87.723553 69.438288 -2.007439 -1.296220 -0.403285 -16.267297 -8.485453 -2.594466 -0.385388 5.420635 14.019555 0.146042 1.527299 -1.441124 0.131200 -2.335100 -6.432800 1.189720 1.680125 -2.218148 13.931862 0.121034 -35.003375 -2.952500 -12.162521 33.253817 3.682252 -19.211467 -2.131560 -0.093700 -1.974000 5.433900 -0.355547 -0.060059 3.421717 0.230488 0.130992 -5.100755 2.534458 -0.030771 -2.108815 -5.159446 -2.756088 -10.782202 2.415820 -3.178460 5.250356 1.457300 -1.778800 5.482900 4.382035 3.254663 -0.311397 -85.577897 -35.716876 34.657144 51.971914 -58.133726 -25.035902 -0.954458 2.736815 -14.838279 19.562616 35.093702 10.814500 -7.125000 0.000000 0.000000 -14.826300 62.925500 -6.528000 -3.008928 -3.774781 -1.180416 62.967906 41.989652 18.959414 -68.367483 59.243008 -44.000237 -0.412287 0.046981 -15.687941 -15.039597 -24.755661 6.298800 7.125000 0.000000 0.000000 15.890700 -54.967400 -3.963900 
